<?xml version="1.0" encoding="UTF-8"?>
<svg id="Layer_1" data-name="Layer 1" xmlns="http://www.w3.org/2000/svg" viewBox="0 0 1188 882">
  <defs>
    <style>
      .cls-1 {
        fill: #9cd08b;
      }

      .cls-2 {
        fill: #231f20;
      }

      .cls-3 {
        fill: #206192;
      }

      .cls-4 {
        fill: #35a0a4;
      }
    </style>
  </defs>
  <g>
    <rect class="cls-4" x="243.48" y="396.77" width="88.62" height="88.47" rx="11.07" ry="11.07"/>
    <rect class="cls-4" x="143.78" y="396.77" width="88.62" height="88.47" rx="11.07" ry="11.07"/>
    <rect class="cls-4" x="343.17" y="396.77" width="88.62" height="88.47" rx="11.07" ry="11.07"/>
    <rect class="cls-3" x="243.48" y="297" width="88.62" height="88.47" rx="11.07" ry="11.07"/>
    <rect class="cls-3" x="143.78" y="297" width="88.62" height="88.47" rx="11.07" ry="11.07"/>
    <rect class="cls-3" x="343.17" y="297" width="88.62" height="88.47" rx="11.07" ry="11.07"/>
    <rect class="cls-1" x="243.48" y="496.53" width="88.62" height="88.47" rx="11.07" ry="11.07"/>
    <rect class="cls-1" x="143.78" y="496.53" width="88.62" height="88.47" rx="11.07" ry="11.07"/>
    <rect class="cls-1" x="343.17" y="496.53" width="88.62" height="88.47" rx="11.07" ry="11.07"/>
    <path d="M254.55,385.47h66.46c1.67,0,3.26-.38,4.68-1.05-3.31-5.67-8.19-12.13-14.36-18.95,2.63-1.59,4.09-3.37,4.9-5.1,4.87-10.29-8.39-28.76-32.25-46.52-18.08,18.85-37.23,41.89-31.31,50.33,1.13,1.62,3.28,2.84,7.07,3.21-4.97,5.52-9.07,10.8-12.14,15.62,1.9,1.53,4.32,2.46,6.95,2.46Z"/>
    <path d="M257.34,585h58.24c-2.67-16.35-5.34-32.69-8.01-49.04,6.38,1.74,14.67,3.72,24.52,5.35v-33.71c0-6.11-4.96-11.06-11.08-11.06h-66.46c-6.12,0-11.08,4.95-11.08,11.06v33.76c7.77-1.27,14.79-2.89,20.97-4.6-2.37,16.08-4.74,32.16-7.11,48.25Z"/>
    <path d="M343.17,507.59v35.29c2.18,.26,4.42,.5,6.71,.71,18.98,1.73,33.48,3.05,36.88-3.34,3.12-5.85-4.23-15.97-18.1-35.07-2.38-3.27-4.6-6.17-6.56-8.65h-7.85c-6.12,0-11.08,4.95-11.08,11.06Z"/>
    <path d="M232.4,507.59c0-6.11-4.96-11.06-11.08-11.06h-11.65c-3.82,3.34-15.68,14.6-20.05,29.03-1.99,6.58-1.71,12.63-1.02,17.07,8.19,.95,17.45,1.51,27.58,1.27,5.66-.13,11.06-.51,16.21-1.06v-35.25Z"/>
    <g>
      <path d="M343.31,453.43s-.09-.07-.14-.1v20.84c0,6.11,4.96,11.06,11.08,11.06h13.79c-2.87-9.51-16.78-26.13-24.73-31.8Z"/>
      <path d="M343.17,437.01v6.51c.19-.23,.35-.43,.43-.59,.65-1.23,.59-3.18-.43-5.92Z"/>
    </g>
    <g>
      <path d="M232.4,474.18v-24.35c-3.9,3.36-15.33,13.81-24.11,27.96-1.46,2.36-2.83,4.96-3.87,7.45h16.91c6.12,0,11.08-4.95,11.08-11.06Z"/>
      <path d="M228.62,442.17c.88,1.96,2.58,3.92,3.79,5.16v-18.88c-4.56,6.54-5.09,10.83-3.79,13.72Z"/>
    </g>
    <path d="M243.76,405.39c1.56,1.08,4.32,2.02,9.42,1.72-3.72,3.18-6.93,6.1-9.7,8.79v58.27c0,6.11,4.96,11.06,11.08,11.06h66.46c6.12,0,11.08-4.95,11.08-11.06v-53.96c-3.55-4.22-8.01-9.03-13.51-14.46,6.97,.39,9.59-1.52,10.72-2.98,.31-.4,.56-.84,.76-1.31-2.01-2.83-5.31-4.69-9.05-4.69h-66.46c-5.28,0-9.69,3.69-10.8,8.62Z"/>
  </g>
  <g>
    <path class="cls-2" d="M459.81,310.9h23.56c13.07,0,22.45,8.6,22.45,20.47s-9.37,21.93-23.31,21.93h-9.12v17.8h-13.59v-60.2Zm23.22,30.36c5.42,0,9.03-4.39,9.03-9.03,0-5.16-3.61-9.2-9.03-9.2h-9.63v18.23h9.63Z"/>
    <path class="cls-2" d="M533.29,310.9h16.51l22.36,60.2h-14.71l-4.17-12.04h-23.65l-4.17,12.04h-14.53l22.36-60.2Zm16.55,36.38l-8.34-22.57-8.38,22.57h16.73Z"/>
    <path class="cls-2" d="M579.69,341.26c0-17.11,12.99-31.56,31.82-31.56,5.76,0,12.81,1.33,16.86,3.83v13.85c-3.44-2.97-9.29-4.77-15.22-4.77-12.56,0-19.18,8-19.18,18.06s6.97,18.75,19.69,18.75c5.2,0,10.66-1.46,14.71-3.83v13.59c-3.91,2.19-11.18,3.4-16.77,3.4-19.01,0-31.91-14.28-31.91-31.3Z"/>
    <path class="cls-2" d="M645.74,310.9h13.67v60.2h-13.67v-60.2Z"/>
    <path class="cls-2" d="M679.19,310.9h41.37v12.73h-28.04v13.07h23.39v12.56h-23.39v21.84h-13.33v-60.2Z"/>
    <path class="cls-2" d="M737.15,310.9h13.67v60.2h-13.67v-60.2Z"/>
    <path class="cls-2" d="M767.38,341.26c0-17.11,12.99-31.56,31.82-31.56,5.76,0,12.81,1.33,16.86,3.83v13.85c-3.44-2.97-9.29-4.77-15.22-4.77-12.56,0-19.18,8-19.18,18.06s6.96,18.75,19.69,18.75c5.2,0,10.66-1.46,14.71-3.83v13.59c-3.91,2.19-11.18,3.4-16.77,3.4-19.01,0-31.91-14.28-31.91-31.3Z"/>
    <path class="cls-2" d="M459.81,410.9h13.16l25.46,37.93v-37.93h13.07v60.2h-13.07l-25.54-38.1v38.1h-13.07v-60.2Z"/>
    <path class="cls-2" d="M528.05,441.09c0-17.37,14.1-31.39,31.48-31.39s31.48,14.02,31.48,31.39-14.1,31.48-31.48,31.48-31.48-14.02-31.48-31.48Zm49.11,0c0-10.23-7.74-18.23-17.63-18.23s-17.63,8-17.63,18.23,7.74,18.32,17.63,18.32,17.63-8.08,17.63-18.32Z"/>
    <path class="cls-2" d="M606.44,410.9h23.56c13.07,0,22.45,8.6,22.45,20.04,0,7.22-4.43,13.85-10.79,17.72l13.97,22.45h-16.08l-11.65-19.44h-8.04v19.44h-13.42v-60.2Zm23.39,29.5c5.42,0,9.03-3.96,9.03-8.6s-3.61-8.6-9.03-8.6h-9.98v17.2h9.98Z"/>
    <path class="cls-2" d="M678.46,423.63h-16.17v-12.73h45.92v12.73h-16.17v47.47h-13.59v-47.47Z"/>
    <path class="cls-2" d="M724.13,410.9h13.59v23.22h22.53v-23.22h13.59v60.2h-13.59v-24.08h-22.53v24.08h-13.59v-60.2Z"/>
    <path class="cls-2" d="M787.16,410.9h14.45l10.28,40.72,10.96-40.72h17.29l10.96,40.72,10.28-40.72h14.45l-17.8,60.2h-13.54l-12.99-44.46-12.99,44.46h-13.54l-17.8-60.2Z"/>
    <path class="cls-2" d="M889.8,410.9h39.73v12.21h-26.32v11.09h22.27v12.56h-22.27v11.95h27.52v12.38h-40.94v-60.2Z"/>
    <path class="cls-2" d="M945.83,467.79v-14.32c4.77,3.1,10.36,5.59,17.8,5.59,4.56,0,10.92-1.38,10.92-5.33,0-8.51-29.32-4.47-29.32-24.6,0-11.18,9.03-19.26,22.7-19.26,5.5,0,12.12,1.33,16.68,3.53v13.8c-4.26-2.62-10.15-4.6-15.22-4.6-6.36,0-10.66,2.32-10.66,5.5,0,8.43,29.93,4.13,29.93,24.51,0,11.27-9.12,19.52-22.88,19.52-9.63,0-15.57-2.24-19.95-4.34Z"/>
    <path class="cls-2" d="M1014.46,423.63h-16.17v-12.73h45.92v12.73h-16.17v47.47h-13.59v-47.47Z"/>
    <path class="cls-2" d="M456.58,541.26c0-17.11,12.99-31.56,31.82-31.56,5.76,0,12.81,1.33,16.86,3.83v13.85c-3.44-2.97-9.29-4.77-15.22-4.77-12.56,0-19.18,8-19.18,18.06s6.97,18.75,19.69,18.75c5.2,0,10.66-1.46,14.71-3.83v13.59c-3.91,2.19-11.18,3.4-16.77,3.4-19.01,0-31.91-14.28-31.91-31.3Z"/>
    <path class="cls-2" d="M522.2,545.3v-34.4h13.59v33.63c0,11.7,6.28,15.39,12.64,15.39s12.64-3.7,12.64-15.39v-33.63h13.59v34.4c0,19.52-10.88,27.26-26.23,27.26s-26.23-7.74-26.23-27.26Z"/>
    <path class="cls-2" d="M594.18,510.9h25.71c10.92,0,18.75,7.22,18.75,17.11,0,4.6-2.24,8.69-5.76,11.7,4.9,2.79,8.17,7.4,8.17,13.16,0,9.98-7.83,18.23-19.44,18.23h-27.61l.17-60.2Zm24.77,24.17c3.7,0,6.45-2.67,6.45-6.36s-2.75-6.36-6.45-6.36h-12.13v12.73h12.13Zm1.03,24.6c4.56,0,7.65-3.1,7.65-6.88,0-4.13-3.1-6.88-7.65-6.88h-13.16v13.76h13.16Z"/>
    <path class="cls-2" d="M657.35,510.9h13.67v60.2h-13.67v-60.2Z"/>
    <path class="cls-2" d="M690.8,510.9h13.16l25.46,37.93v-37.93h13.07v60.2h-13.07l-25.54-38.1v38.1h-13.07v-60.2Z"/>
    <path class="cls-2" d="M759.04,541.09c0-18.66,14.36-31.39,32.68-31.39,5.25,0,12.81,1.03,18.4,3.53v13.67c-4.47-2.75-11.09-4.13-16.43-4.13-12.38,0-20.73,7.44-20.73,18.49s7.91,18.23,20.12,18.23c2.32,0,4.77-.26,7.05-.9v-10.79h-10.15v-11.61h23.48v31.13c-4.99,3.01-14.53,5.25-22.19,5.25-18.66,0-32.25-13.24-32.25-31.48Z"/>
  </g>
</svg>