<?xml version="1.0" encoding="UTF-8"?>
<svg id="Layer_1" data-name="Layer 1" xmlns="http://www.w3.org/2000/svg" viewBox="0 0 1188 882">
  <defs>
    <style>
      .cls-1 {
        fill: #9cd08b;
      }

      .cls-2 {
        fill: #206192;
      }

      .cls-3 {
        fill: #35a0a4;
      }
    </style>
  </defs>
  <rect class="cls-3" x="522" y="369" width="144" height="144" rx="18" ry="18"/>
  <rect class="cls-3" x="360" y="369" width="144" height="144" rx="18" ry="18"/>
  <rect class="cls-3" x="684" y="369" width="144" height="144" rx="18" ry="18"/>
  <rect class="cls-2" x="522" y="206.61" width="144" height="144" rx="18" ry="18"/>
  <rect class="cls-2" x="360" y="206.61" width="144" height="144" rx="18" ry="18"/>
  <rect class="cls-2" x="684" y="206.61" width="144" height="144" rx="18" ry="18"/>
  <rect class="cls-1" x="522" y="531.39" width="144" height="144" rx="18" ry="18"/>
  <rect class="cls-1" x="360" y="531.39" width="144" height="144" rx="18" ry="18"/>
  <rect class="cls-1" x="684" y="531.39" width="144" height="144" rx="18" ry="18"/>
  <path d="M540,350.61h108c2.72,0,5.29-.62,7.6-1.7-5.38-9.22-13.31-19.75-23.34-30.84,4.27-2.58,6.65-5.49,7.97-8.29,7.91-16.75-13.63-46.82-52.41-75.73-29.38,30.68-60.5,68.18-50.88,81.92,1.84,2.63,5.33,4.62,11.49,5.22-8.08,8.98-14.73,17.58-19.73,25.42,3.09,2.5,7.02,4,11.3,4Z"/>
  <path d="M544.53,675.39h94.64c-4.34-26.61-8.68-53.22-13.02-79.83,10.36,2.83,23.83,6.05,39.85,8.7v-54.88c0-9.94-8.06-18-18-18h-108c-9.94,0-18,8.06-18,18v54.95c12.62-2.07,24.04-4.7,34.08-7.48-3.85,26.18-7.7,52.35-11.55,78.53Z"/>
  <path d="M684,549.39v57.44c3.54,.42,7.18,.81,10.91,1.15,30.84,2.82,54.4,4.97,59.94-5.44,5.07-9.52-6.87-25.99-29.41-57.08-3.86-5.33-7.48-10.05-10.67-14.07h-12.76c-9.94,0-18,8.06-18,18Z"/>
  <path d="M504,549.39c0-9.94-8.06-18-18-18h-18.92c-6.21,5.44-25.47,23.76-32.58,47.25-3.24,10.7-2.78,20.55-1.66,27.78,13.31,1.55,28.35,2.46,44.82,2.07,9.19-.22,17.98-.83,26.35-1.72v-57.38Z"/>
  <g>
    <path d="M684.22,461.24c-.08-.06-.14-.11-.22-.16v33.93c0,9.94,8.06,18,18,18h22.41c-4.66-15.48-27.27-42.53-40.19-51.76Z"/>
    <path d="M684,434.51v10.6c.32-.37,.56-.7,.7-.96,1.06-2,.96-5.18-.7-9.64Z"/>
  </g>
  <g>
    <path d="M504,495v-39.63c-6.34,5.47-24.91,22.48-39.19,45.51-2.38,3.83-4.6,8.07-6.29,12.13h27.48c9.94,0,18-8.06,18-18Z"/>
    <path d="M497.85,442.91c1.43,3.19,4.19,6.38,6.15,8.41v-30.73c-7.4,10.65-8.27,17.62-6.15,22.33Z"/>
  </g>
  <path d="M522.45,383.04c2.53,1.76,7.02,3.29,15.31,2.8-6.04,5.18-11.26,9.93-15.76,14.32v94.85c0,9.94,8.06,18,18,18h108c9.94,0,18-8.06,18-18v-87.83c-5.77-6.87-13.01-14.69-21.95-23.54,11.32,.63,15.58-2.48,17.42-4.86,.5-.65,.91-1.37,1.23-2.14-3.26-4.61-8.62-7.64-14.7-7.64h-108c-8.58,0-15.74,6-17.55,14.04Z"/>
</svg>
